<mxfile host="app.diagrams.net" modified="2024-05-01T15:10:49.700Z" agent="Mozilla/5.0 (Windows NT 10.0; Win64; x64) AppleWebKit/537.36 (KHTML, like Gecko) Chrome/124.0.0.0 Safari/537.36" etag="roA7D65IOHyhRcb6Cajw" version="24.3.1" type="device">
  <diagram name="Page-1" id="kJrohckz2MH-mBewGDta">
    <mxGraphModel dx="1366" dy="1948" grid="1" gridSize="10" guides="1" tooltips="1" connect="1" arrows="1" fold="1" page="1" pageScale="1" pageWidth="827" pageHeight="1169" math="0" shadow="0">
      <root>
        <mxCell id="0" />
        <mxCell id="1" parent="0" />
        <mxCell id="uU9seGJs6KIkogDMqi07-2" value="AWS Cloud" style="points=[[0,0],[0.25,0],[0.5,0],[0.75,0],[1,0],[1,0.25],[1,0.5],[1,0.75],[1,1],[0.75,1],[0.5,1],[0.25,1],[0,1],[0,0.75],[0,0.5],[0,0.25]];outlineConnect=0;gradientColor=none;html=1;whiteSpace=wrap;fontSize=12;fontStyle=0;container=1;pointerEvents=0;collapsible=0;recursiveResize=0;shape=mxgraph.aws4.group;grIcon=mxgraph.aws4.group_aws_cloud_alt;strokeColor=#232F3E;fillColor=none;verticalAlign=top;align=left;spacingLeft=30;fontColor=#232F3E;dashed=0;" parent="1" vertex="1">
          <mxGeometry x="30" y="-60" width="1320" height="1250" as="geometry" />
        </mxCell>
        <mxCell id="uU9seGJs6KIkogDMqi07-7" value="&lt;font style=&quot;font-size: 14px;&quot;&gt;route 53&lt;/font&gt;" style="sketch=0;points=[[0,0,0],[0.25,0,0],[0.5,0,0],[0.75,0,0],[1,0,0],[0,1,0],[0.25,1,0],[0.5,1,0],[0.75,1,0],[1,1,0],[0,0.25,0],[0,0.5,0],[0,0.75,0],[1,0.25,0],[1,0.5,0],[1,0.75,0]];outlineConnect=0;fontColor=#232F3E;fillColor=#8C4FFF;strokeColor=#ffffff;dashed=0;verticalLabelPosition=bottom;verticalAlign=top;align=center;html=1;fontSize=12;fontStyle=0;aspect=fixed;shape=mxgraph.aws4.resourceIcon;resIcon=mxgraph.aws4.route_53;" parent="uU9seGJs6KIkogDMqi07-2" vertex="1">
          <mxGeometry x="1190" y="1010" width="78" height="78" as="geometry" />
        </mxCell>
        <mxCell id="uU9seGJs6KIkogDMqi07-12" value="&lt;font style=&quot;font-size: 14px;&quot;&gt;cloudfront&lt;/font&gt;" style="sketch=0;points=[[0,0,0],[0.25,0,0],[0.5,0,0],[0.75,0,0],[1,0,0],[0,1,0],[0.25,1,0],[0.5,1,0],[0.75,1,0],[1,1,0],[0,0.25,0],[0,0.5,0],[0,0.75,0],[1,0.25,0],[1,0.5,0],[1,0.75,0]];outlineConnect=0;fontColor=#232F3E;fillColor=#8C4FFF;strokeColor=#ffffff;dashed=0;verticalLabelPosition=bottom;verticalAlign=top;align=center;html=1;fontSize=12;fontStyle=0;aspect=fixed;shape=mxgraph.aws4.resourceIcon;resIcon=mxgraph.aws4.cloudfront;" parent="uU9seGJs6KIkogDMqi07-2" vertex="1">
          <mxGeometry x="1200" y="470" width="78" height="78" as="geometry" />
        </mxCell>
        <mxCell id="uU9seGJs6KIkogDMqi07-19" value="&lt;font style=&quot;font-size: 14px;&quot;&gt;S3 Bucket&lt;/font&gt;" style="sketch=0;points=[[0,0,0],[0.25,0,0],[0.5,0,0],[0.75,0,0],[1,0,0],[0,1,0],[0.25,1,0],[0.5,1,0],[0.75,1,0],[1,1,0],[0,0.25,0],[0,0.5,0],[0,0.75,0],[1,0.25,0],[1,0.5,0],[1,0.75,0]];outlineConnect=0;fontColor=#232F3E;fillColor=#7AA116;strokeColor=#ffffff;dashed=0;verticalLabelPosition=bottom;verticalAlign=top;align=center;html=1;fontSize=12;fontStyle=0;aspect=fixed;shape=mxgraph.aws4.resourceIcon;resIcon=mxgraph.aws4.s3;" parent="uU9seGJs6KIkogDMqi07-2" vertex="1">
          <mxGeometry x="1172" y="80" width="78" height="78" as="geometry" />
        </mxCell>
        <mxCell id="uU9seGJs6KIkogDMqi07-33" value="" style="edgeStyle=orthogonalEdgeStyle;html=1;endArrow=block;elbow=vertical;startArrow=block;startFill=1;endFill=1;strokeColor=#545B64;rounded=0;exitX=0.5;exitY=0;exitDx=0;exitDy=0;exitPerimeter=0;entryX=0.5;entryY=1;entryDx=0;entryDy=0;entryPerimeter=0;" parent="uU9seGJs6KIkogDMqi07-2" source="uU9seGJs6KIkogDMqi07-12" target="uU9seGJs6KIkogDMqi07-19" edge="1">
          <mxGeometry width="100" relative="1" as="geometry">
            <mxPoint x="1280" y="320" as="sourcePoint" />
            <mxPoint x="1380" y="320" as="targetPoint" />
          </mxGeometry>
        </mxCell>
        <mxCell id="nDglhbJZxhiXC8sGKIUS-1" value="" style="sketch=0;points=[[0,0,0],[0.25,0,0],[0.5,0,0],[0.75,0,0],[1,0,0],[0,1,0],[0.25,1,0],[0.5,1,0],[0.75,1,0],[1,1,0],[0,0.25,0],[0,0.5,0],[0,0.75,0],[1,0.25,0],[1,0.5,0],[1,0.75,0]];outlineConnect=0;fontColor=#232F3E;fillColor=#DD344C;strokeColor=#ffffff;dashed=0;verticalLabelPosition=bottom;verticalAlign=top;align=center;html=1;fontSize=12;fontStyle=0;aspect=fixed;shape=mxgraph.aws4.resourceIcon;resIcon=mxgraph.aws4.key_management_service;" vertex="1" parent="uU9seGJs6KIkogDMqi07-2">
          <mxGeometry x="472" y="1152" width="78" height="78" as="geometry" />
        </mxCell>
        <mxCell id="uU9seGJs6KIkogDMqi07-3" value="VPC" style="points=[[0,0],[0.25,0],[0.5,0],[0.75,0],[1,0],[1,0.25],[1,0.5],[1,0.75],[1,1],[0.75,1],[0.5,1],[0.25,1],[0,1],[0,0.75],[0,0.5],[0,0.25]];outlineConnect=0;gradientColor=none;html=1;whiteSpace=wrap;fontSize=12;fontStyle=0;container=1;pointerEvents=0;collapsible=0;recursiveResize=0;shape=mxgraph.aws4.group;grIcon=mxgraph.aws4.group_vpc2;strokeColor=#8C4FFF;fillColor=none;verticalAlign=top;align=left;spacingLeft=30;fontColor=#AAB7B8;dashed=0;" parent="1" vertex="1">
          <mxGeometry x="70" width="910" height="1070" as="geometry" />
        </mxCell>
        <mxCell id="uU9seGJs6KIkogDMqi07-5" value="Private subnet" style="points=[[0,0],[0.25,0],[0.5,0],[0.75,0],[1,0],[1,0.25],[1,0.5],[1,0.75],[1,1],[0.75,1],[0.5,1],[0.25,1],[0,1],[0,0.75],[0,0.5],[0,0.25]];outlineConnect=0;gradientColor=none;html=1;whiteSpace=wrap;fontSize=12;fontStyle=0;container=1;pointerEvents=0;collapsible=0;recursiveResize=0;shape=mxgraph.aws4.group;grIcon=mxgraph.aws4.group_security_group;grStroke=0;strokeColor=#00A4A6;fillColor=none;verticalAlign=top;align=left;spacingLeft=30;fontColor=#147EBA;dashed=0;" parent="uU9seGJs6KIkogDMqi07-3" vertex="1">
          <mxGeometry x="60" y="360" width="370" height="330" as="geometry" />
        </mxCell>
        <mxCell id="uU9seGJs6KIkogDMqi07-24" style="edgeStyle=orthogonalEdgeStyle;rounded=0;orthogonalLoop=1;jettySize=auto;html=1;" parent="uU9seGJs6KIkogDMqi07-3" source="uU9seGJs6KIkogDMqi07-21" target="uU9seGJs6KIkogDMqi07-23" edge="1">
          <mxGeometry relative="1" as="geometry" />
        </mxCell>
        <mxCell id="uU9seGJs6KIkogDMqi07-21" value="&lt;font style=&quot;font-size: 14px;&quot;&gt;Api Gateway&lt;/font&gt;" style="sketch=0;points=[[0,0,0],[0.25,0,0],[0.5,0,0],[0.75,0,0],[1,0,0],[0,1,0],[0.25,1,0],[0.5,1,0],[0.75,1,0],[1,1,0],[0,0.25,0],[0,0.5,0],[0,0.75,0],[1,0.25,0],[1,0.5,0],[1,0.75,0]];outlineConnect=0;fontColor=#232F3E;fillColor=#E7157B;strokeColor=#ffffff;dashed=0;verticalLabelPosition=bottom;verticalAlign=top;align=center;html=1;fontSize=12;fontStyle=0;aspect=fixed;shape=mxgraph.aws4.resourceIcon;resIcon=mxgraph.aws4.api_gateway;" parent="uU9seGJs6KIkogDMqi07-3" vertex="1">
          <mxGeometry x="670" y="90" width="78" height="78" as="geometry" />
        </mxCell>
        <mxCell id="uU9seGJs6KIkogDMqi07-23" value="&lt;font style=&quot;font-size: 14px;&quot;&gt;lambda function&lt;/font&gt;" style="outlineConnect=0;dashed=0;verticalLabelPosition=bottom;verticalAlign=top;align=center;html=1;shape=mxgraph.aws3.lambda_function;fillColor=#F58534;gradientColor=none;" parent="uU9seGJs6KIkogDMqi07-3" vertex="1">
          <mxGeometry x="440" y="80" width="69" height="72" as="geometry" />
        </mxCell>
        <mxCell id="uU9seGJs6KIkogDMqi07-28" value="" style="edgeStyle=orthogonalEdgeStyle;html=1;endArrow=block;elbow=vertical;startArrow=block;startFill=1;endFill=1;strokeColor=#545B64;rounded=0;entryX=0.5;entryY=1;entryDx=0;entryDy=0;entryPerimeter=0;" parent="uU9seGJs6KIkogDMqi07-3" source="uU9seGJs6KIkogDMqi07-25" target="uU9seGJs6KIkogDMqi07-23" edge="1">
          <mxGeometry width="100" relative="1" as="geometry">
            <mxPoint x="790" y="360" as="sourcePoint" />
            <mxPoint x="890" y="360" as="targetPoint" />
          </mxGeometry>
        </mxCell>
        <mxCell id="uU9seGJs6KIkogDMqi07-34" value="Region" style="points=[[0,0],[0.25,0],[0.5,0],[0.75,0],[1,0],[1,0.25],[1,0.5],[1,0.75],[1,1],[0.75,1],[0.5,1],[0.25,1],[0,1],[0,0.75],[0,0.5],[0,0.25]];outlineConnect=0;gradientColor=none;html=1;whiteSpace=wrap;fontSize=12;fontStyle=0;container=1;pointerEvents=0;collapsible=0;recursiveResize=0;shape=mxgraph.aws4.group;grIcon=mxgraph.aws4.group_region;strokeColor=#00A4A6;fillColor=none;verticalAlign=top;align=left;spacingLeft=30;fontColor=#147EBA;dashed=1;" parent="uU9seGJs6KIkogDMqi07-3" vertex="1">
          <mxGeometry x="40" y="310" width="418" height="620" as="geometry" />
        </mxCell>
        <mxCell id="uU9seGJs6KIkogDMqi07-25" value="&lt;div style=&quot;text-align: left;&quot;&gt;&lt;font style=&quot;font-size: 14px;&quot;&gt;RDS Proxy&lt;/font&gt;&lt;/div&gt;" style="sketch=0;outlineConnect=0;fontColor=#232F3E;gradientColor=none;fillColor=#C925D1;strokeColor=none;dashed=0;verticalLabelPosition=bottom;verticalAlign=top;align=center;html=1;fontSize=12;fontStyle=0;aspect=fixed;pointerEvents=1;shape=mxgraph.aws4.rds_proxy;" parent="uU9seGJs6KIkogDMqi07-34" vertex="1">
          <mxGeometry x="151.5" y="90" width="78" height="78" as="geometry" />
        </mxCell>
        <mxCell id="uU9seGJs6KIkogDMqi07-26" value="&lt;span style=&quot;font-size: 14px; text-align: left;&quot;&gt;RDS Database&lt;/span&gt;" style="sketch=0;outlineConnect=0;fontColor=#232F3E;gradientColor=none;fillColor=#C925D1;strokeColor=none;dashed=0;verticalLabelPosition=bottom;verticalAlign=top;align=center;html=1;fontSize=12;fontStyle=0;aspect=fixed;pointerEvents=1;shape=mxgraph.aws4.rds_instance;" parent="uU9seGJs6KIkogDMqi07-34" vertex="1">
          <mxGeometry x="151.5" y="250" width="78" height="78" as="geometry" />
        </mxCell>
        <mxCell id="uU9seGJs6KIkogDMqi07-27" value="" style="edgeStyle=orthogonalEdgeStyle;html=1;endArrow=block;elbow=vertical;startArrow=block;startFill=1;endFill=1;strokeColor=#545B64;rounded=0;" parent="uU9seGJs6KIkogDMqi07-34" source="uU9seGJs6KIkogDMqi07-26" target="uU9seGJs6KIkogDMqi07-25" edge="1">
          <mxGeometry width="100" relative="1" as="geometry">
            <mxPoint x="750" y="-100" as="sourcePoint" />
            <mxPoint x="850" y="-100" as="targetPoint" />
          </mxGeometry>
        </mxCell>
        <mxCell id="uU9seGJs6KIkogDMqi07-38" value="&lt;font style=&quot;font-size: 14px;&quot;&gt;RDS Snapshot&lt;/font&gt;" style="sketch=0;outlineConnect=0;fontColor=#232F3E;gradientColor=none;fillColor=#7AA116;strokeColor=none;dashed=0;verticalLabelPosition=bottom;verticalAlign=top;align=center;html=1;fontSize=12;fontStyle=0;aspect=fixed;pointerEvents=1;shape=mxgraph.aws4.bucket_with_objects;" parent="uU9seGJs6KIkogDMqi07-34" vertex="1">
          <mxGeometry x="154.5" y="510" width="75" height="78" as="geometry" />
        </mxCell>
        <mxCell id="uU9seGJs6KIkogDMqi07-42" value="" style="edgeStyle=orthogonalEdgeStyle;html=1;endArrow=block;elbow=vertical;startArrow=none;endFill=1;strokeColor=#545B64;rounded=0;" parent="uU9seGJs6KIkogDMqi07-34" source="uU9seGJs6KIkogDMqi07-26" target="uU9seGJs6KIkogDMqi07-38" edge="1">
          <mxGeometry width="100" relative="1" as="geometry">
            <mxPoint x="460" y="510" as="sourcePoint" />
            <mxPoint x="560" y="510" as="targetPoint" />
          </mxGeometry>
        </mxCell>
        <mxCell id="uU9seGJs6KIkogDMqi07-36" value="Availability Zone" style="fillColor=none;strokeColor=#147EBA;dashed=1;verticalAlign=top;fontStyle=0;fontColor=#147EBA;whiteSpace=wrap;html=1;" parent="uU9seGJs6KIkogDMqi07-34" vertex="1">
          <mxGeometry x="9" y="40" width="400" height="430" as="geometry" />
        </mxCell>
        <mxCell id="uU9seGJs6KIkogDMqi07-37" value="Region" style="points=[[0,0],[0.25,0],[0.5,0],[0.75,0],[1,0],[1,0.25],[1,0.5],[1,0.75],[1,1],[0.75,1],[0.5,1],[0.25,1],[0,1],[0,0.75],[0,0.5],[0,0.25]];outlineConnect=0;gradientColor=none;html=1;whiteSpace=wrap;fontSize=12;fontStyle=0;container=1;pointerEvents=0;collapsible=0;recursiveResize=0;shape=mxgraph.aws4.group;grIcon=mxgraph.aws4.group_region;strokeColor=#00A4A6;fillColor=none;verticalAlign=top;align=left;spacingLeft=30;fontColor=#147EBA;dashed=1;" parent="uU9seGJs6KIkogDMqi07-3" vertex="1">
          <mxGeometry x="500" y="310" width="380" height="734" as="geometry" />
        </mxCell>
        <mxCell id="uU9seGJs6KIkogDMqi07-44" value="&lt;span style=&quot;font-size: 14px;&quot;&gt;RDS Snapshot&lt;/span&gt;" style="sketch=0;outlineConnect=0;fontColor=#232F3E;gradientColor=none;fillColor=#7AA116;strokeColor=none;dashed=0;verticalLabelPosition=bottom;verticalAlign=top;align=center;html=1;fontSize=12;fontStyle=0;aspect=fixed;pointerEvents=1;shape=mxgraph.aws4.bucket_with_objects;" parent="uU9seGJs6KIkogDMqi07-37" vertex="1">
          <mxGeometry x="140" y="480" width="75" height="78" as="geometry" />
        </mxCell>
        <mxCell id="uU9seGJs6KIkogDMqi07-45" value="" style="edgeStyle=orthogonalEdgeStyle;html=1;endArrow=block;elbow=vertical;startArrow=none;endFill=1;strokeColor=#545B64;rounded=0;" parent="uU9seGJs6KIkogDMqi07-3" source="uU9seGJs6KIkogDMqi07-38" target="uU9seGJs6KIkogDMqi07-44" edge="1">
          <mxGeometry width="100" relative="1" as="geometry">
            <mxPoint x="280.0017274384686" y="990.00347826087" as="sourcePoint" />
            <mxPoint x="663.0182725615311" y="960.00347826087" as="targetPoint" />
            <Array as="points">
              <mxPoint x="232" y="990" />
              <mxPoint x="678" y="990" />
            </Array>
          </mxGeometry>
        </mxCell>
        <mxCell id="uU9seGJs6KIkogDMqi07-46" value="&lt;font style=&quot;font-size: 13px;&quot;&gt;Daily&lt;/font&gt;" style="edgeLabel;html=1;align=center;verticalAlign=middle;resizable=0;points=[];" parent="uU9seGJs6KIkogDMqi07-45" vertex="1" connectable="0">
          <mxGeometry x="-0.2199" relative="1" as="geometry">
            <mxPoint as="offset" />
          </mxGeometry>
        </mxCell>
        <mxCell id="uU9seGJs6KIkogDMqi07-6" value="&lt;font style=&quot;font-size: 15px;&quot;&gt;Client&lt;/font&gt;" style="sketch=0;outlineConnect=0;fontColor=#232F3E;gradientColor=none;fillColor=#232F3D;strokeColor=none;dashed=0;verticalLabelPosition=bottom;verticalAlign=top;align=center;html=1;fontSize=12;fontStyle=0;aspect=fixed;pointerEvents=1;shape=mxgraph.aws4.client;" parent="1" vertex="1">
          <mxGeometry x="1430" y="710" width="112.89" height="110" as="geometry" />
        </mxCell>
        <mxCell id="uU9seGJs6KIkogDMqi07-17" value="" style="edgeStyle=orthogonalEdgeStyle;html=1;endArrow=block;elbow=vertical;startArrow=block;startFill=1;endFill=1;strokeColor=#545B64;rounded=0;" parent="1" source="uU9seGJs6KIkogDMqi07-12" target="uU9seGJs6KIkogDMqi07-6" edge="1">
          <mxGeometry width="100" relative="1" as="geometry">
            <mxPoint x="1240" y="770" as="sourcePoint" />
            <mxPoint x="1340" y="770" as="targetPoint" />
            <Array as="points">
              <mxPoint x="1269" y="760" />
            </Array>
          </mxGeometry>
        </mxCell>
        <mxCell id="uU9seGJs6KIkogDMqi07-18" value="" style="edgeStyle=orthogonalEdgeStyle;html=1;endArrow=none;elbow=vertical;startArrow=block;startFill=1;strokeColor=#545B64;rounded=0;exitX=0.5;exitY=0;exitDx=0;exitDy=0;exitPerimeter=0;" parent="1" source="uU9seGJs6KIkogDMqi07-7" target="uU9seGJs6KIkogDMqi07-6" edge="1">
          <mxGeometry width="100" relative="1" as="geometry">
            <mxPoint x="860" y="520" as="sourcePoint" />
            <mxPoint x="960" y="520" as="targetPoint" />
            <Array as="points">
              <mxPoint x="1260" y="950" />
              <mxPoint x="1260" y="760" />
            </Array>
          </mxGeometry>
        </mxCell>
        <mxCell id="uU9seGJs6KIkogDMqi07-22" style="edgeStyle=orthogonalEdgeStyle;rounded=0;orthogonalLoop=1;jettySize=auto;html=1;entryX=1;entryY=0.5;entryDx=0;entryDy=0;entryPerimeter=0;" parent="1" source="uU9seGJs6KIkogDMqi07-6" target="uU9seGJs6KIkogDMqi07-21" edge="1">
          <mxGeometry relative="1" as="geometry">
            <Array as="points">
              <mxPoint x="1480" y="600" />
              <mxPoint x="1140" y="600" />
              <mxPoint x="1140" y="130" />
              <mxPoint x="818" y="130" />
            </Array>
          </mxGeometry>
        </mxCell>
        <mxCell id="nDglhbJZxhiXC8sGKIUS-2" value="" style="edgeStyle=orthogonalEdgeStyle;html=1;endArrow=block;elbow=vertical;startArrow=none;endFill=1;strokeColor=#545B64;rounded=0;exitX=0.5;exitY=0;exitDx=0;exitDy=0;exitPerimeter=0;" edge="1" parent="1" source="nDglhbJZxhiXC8sGKIUS-1" target="uU9seGJs6KIkogDMqi07-38">
          <mxGeometry width="100" relative="1" as="geometry">
            <mxPoint x="380" y="1040" as="sourcePoint" />
            <mxPoint x="480" y="1040" as="targetPoint" />
            <Array as="points">
              <mxPoint x="541" y="859" />
            </Array>
          </mxGeometry>
        </mxCell>
        <mxCell id="nDglhbJZxhiXC8sGKIUS-3" value="" style="edgeStyle=orthogonalEdgeStyle;html=1;endArrow=block;elbow=vertical;startArrow=none;endFill=1;strokeColor=#545B64;rounded=0;exitX=0.5;exitY=0;exitDx=0;exitDy=0;exitPerimeter=0;" edge="1" parent="1" source="nDglhbJZxhiXC8sGKIUS-1" target="uU9seGJs6KIkogDMqi07-44">
          <mxGeometry width="100" relative="1" as="geometry">
            <mxPoint x="490" y="890" as="sourcePoint" />
            <mxPoint x="590" y="890" as="targetPoint" />
            <Array as="points">
              <mxPoint x="541" y="860" />
            </Array>
          </mxGeometry>
        </mxCell>
      </root>
    </mxGraphModel>
  </diagram>
</mxfile>
